<svg xmlns="http://www.w3.org/2000/svg" viewBox="0 0 192 192" shape-rendering="crispEdges">
<rect width="192" height="192" fill="#F2EEE3"/>
<rect x="68" y="0" width="12" height="4" fill="#2B2F33"/>
<rect x="80" y="0" width="32" height="4" fill="#7FA88F"/>
<rect x="112" y="0" width="12" height="4" fill="#2B2F33"/>
<rect x="60" y="4" width="8" height="4" fill="#2B2F33"/>
<rect x="68" y="4" width="56" height="4" fill="#7FA88F"/>
<rect x="124" y="4" width="8" height="4" fill="#2B2F33"/>
<rect x="52" y="8" width="8" height="4" fill="#2B2F33"/>
<rect x="60" y="8" width="72" height="4" fill="#7FA88F"/>
<rect x="132" y="8" width="8" height="4" fill="#2B2F33"/>
<rect x="44" y="12" width="8" height="4" fill="#2B2F33"/>
<rect x="52" y="12" width="88" height="4" fill="#7FA88F"/>
<rect x="140" y="12" width="8" height="4" fill="#2B2F33"/>
<rect x="40" y="16" width="4" height="4" fill="#2B2F33"/>
<rect x="40" y="68" width="4" height="8" fill="#2B2F33"/>
<rect x="40" y="80" width="4" height="4" fill="#2B2F33"/>
<rect x="40" y="88" width="4" height="4" fill="#2B2F33"/>
<rect x="40" y="96" width="4" height="16" fill="#2B2F33"/>
<rect x="44" y="16" width="104" height="4" fill="#7FA88F"/>
<rect x="148" y="16" width="4" height="4" fill="#2B2F33"/>
<rect x="148" y="68" width="4" height="8" fill="#2B2F33"/>
<rect x="148" y="80" width="4" height="4" fill="#2B2F33"/>
<rect x="148" y="88" width="4" height="4" fill="#2B2F33"/>
<rect x="148" y="96" width="4" height="16" fill="#2B2F33"/>
<rect x="36" y="20" width="4" height="4" fill="#2B2F33"/>
<rect x="36" y="64" width="4" height="4" fill="#2B2F33"/>
<rect x="40" y="20" width="20" height="4" fill="#7FA88F"/>
<rect x="60" y="20" width="8" height="4" fill="#EDE8DC"/>
<rect x="68" y="20" width="84" height="4" fill="#7FA88F"/>
<rect x="152" y="20" width="4" height="4" fill="#2B2F33"/>
<rect x="152" y="64" width="4" height="4" fill="#2B2F33"/>
<rect x="32" y="24" width="4" height="4" fill="#2B2F33"/>
<rect x="32" y="52" width="4" height="12" fill="#2B2F33"/>
<rect x="36" y="24" width="24" height="4" fill="#7FA88F"/>
<rect x="60" y="24" width="4" height="4" fill="#EDE8DC"/>
<rect x="64" y="24" width="92" height="4" fill="#7FA88F"/>
<rect x="156" y="24" width="4" height="4" fill="#2B2F33"/>
<rect x="156" y="52" width="4" height="12" fill="#2B2F33"/>
<rect x="28" y="28" width="4" height="8" fill="#2B2F33"/>
<rect x="28" y="44" width="4" height="8" fill="#2B2F33"/>
<rect x="32" y="28" width="128" height="4" fill="#7FA88F"/>
<rect x="160" y="28" width="4" height="8" fill="#2B2F33"/>
<rect x="160" y="44" width="4" height="8" fill="#2B2F33"/>
<rect x="32" y="32" width="60" height="4" fill="#7FA88F"/>
<rect x="92" y="32" width="8" height="8" fill="#5C8A6E"/>
<rect x="100" y="32" width="60" height="4" fill="#7FA88F"/>
<rect x="24" y="36" width="4" height="8" fill="#2B2F33"/>
<rect x="28" y="36" width="64" height="4" fill="#7FA88F"/>
<rect x="100" y="36" width="64" height="4" fill="#7FA88F"/>
<rect x="164" y="36" width="4" height="8" fill="#2B2F33"/>
<rect x="28" y="40" width="60" height="4" fill="#7FA88F"/>
<rect x="88" y="40" width="16" height="8" fill="#5C8A6E"/>
<rect x="104" y="40" width="60" height="4" fill="#7FA88F"/>
<rect x="32" y="44" width="56" height="4" fill="#7FA88F"/>
<rect x="104" y="44" width="56" height="4" fill="#7FA88F"/>
<rect x="32" y="48" width="52" height="4" fill="#7FA88F"/>
<rect x="84" y="48" width="24" height="8" fill="#5C8A6E"/>
<rect x="108" y="48" width="52" height="4" fill="#7FA88F"/>
<rect x="36" y="52" width="48" height="4" fill="#7FA88F"/>
<rect x="108" y="52" width="48" height="4" fill="#7FA88F"/>
<rect x="36" y="56" width="8" height="8" fill="#5B7484"/>
<rect x="44" y="56" width="12" height="20" fill="#7A93A0"/>
<rect x="44" y="80" width="12" height="4" fill="#7A93A0"/>
<rect x="44" y="88" width="12" height="4" fill="#7A93A0"/>
<rect x="56" y="56" width="12" height="8" fill="#2B2F33"/>
<rect x="68" y="56" width="56" height="8" fill="#5B7484"/>
<rect x="124" y="56" width="12" height="8" fill="#2B2F33"/>
<rect x="136" y="56" width="20" height="8" fill="#5B7484"/>
<rect x="40" y="64" width="4" height="4" fill="#5B7484"/>
<rect x="56" y="64" width="96" height="4" fill="#5B7484"/>
<rect x="56" y="68" width="92" height="8" fill="#5B7484"/>
<rect x="40" y="76" width="16" height="4" fill="#2B2F33"/>
<rect x="40" y="92" width="16" height="4" fill="#2B2F33"/>
<rect x="56" y="76" width="8" height="4" fill="#5B7484"/>
<rect x="64" y="76" width="56" height="4" fill="#EDE8DC"/>
<rect x="64" y="88" width="56" height="4" fill="#EDE8DC"/>
<rect x="120" y="76" width="16" height="4" fill="#5B7484"/>
<rect x="136" y="76" width="16" height="4" fill="#2B2F33"/>
<rect x="136" y="92" width="16" height="4" fill="#2B2F33"/>
<rect x="56" y="80" width="4" height="4" fill="#5B7484"/>
<rect x="60" y="80" width="24" height="8" fill="#EDE8DC"/>
<rect x="84" y="80" width="16" height="8" fill="#2B2F33"/>
<rect x="84" y="96" width="16" height="4" fill="#2B2F33"/>
<rect x="100" y="80" width="24" height="4" fill="#EDE8DC"/>
<rect x="124" y="80" width="24" height="4" fill="#5B7484"/>
<rect x="40" y="84" width="20" height="4" fill="#2B2F33"/>
<rect x="100" y="84" width="28" height="4" fill="#EDE8DC"/>
<rect x="100" y="96" width="28" height="4" fill="#EDE8DC"/>
<rect x="128" y="84" width="4" height="4" fill="#5B7484"/>
<rect x="132" y="84" width="20" height="4" fill="#2B2F33"/>
<rect x="56" y="88" width="4" height="8" fill="#EDE8DC"/>
<rect x="60" y="88" width="4" height="8" fill="#46606E"/>
<rect x="120" y="88" width="4" height="8" fill="#46606E"/>
<rect x="124" y="88" width="4" height="8" fill="#EDE8DC"/>
<rect x="128" y="88" width="12" height="4" fill="#5B7484"/>
<rect x="128" y="96" width="12" height="16" fill="#5B7484"/>
<rect x="140" y="88" width="8" height="4" fill="#46606E"/>
<rect x="140" y="96" width="8" height="16" fill="#46606E"/>
<rect x="64" y="92" width="16" height="4" fill="#EDE8DC"/>
<rect x="80" y="92" width="4" height="4" fill="#2B2F33"/>
<rect x="84" y="92" width="16" height="4" fill="#EDE8DC"/>
<rect x="100" y="92" width="4" height="4" fill="#2B2F33"/>
<rect x="104" y="92" width="16" height="4" fill="#EDE8DC"/>
<rect x="128" y="92" width="8" height="4" fill="#5B7484"/>
<rect x="44" y="96" width="12" height="16" fill="#5B7484"/>
<rect x="56" y="96" width="28" height="4" fill="#EDE8DC"/>
<rect x="56" y="100" width="72" height="12" fill="#EDE8DC"/>
<rect x="44" y="112" width="4" height="4" fill="#2B2F33"/>
<rect x="48" y="112" width="12" height="4" fill="#5B7484"/>
<rect x="60" y="112" width="64" height="4" fill="#EDE8DC"/>
<rect x="124" y="112" width="12" height="4" fill="#5B7484"/>
<rect x="136" y="112" width="8" height="4" fill="#46606E"/>
<rect x="144" y="112" width="4" height="4" fill="#2B2F33"/>
<rect x="48" y="116" width="8" height="4" fill="#2B2F33"/>
<rect x="56" y="116" width="68" height="4" fill="#5B7484"/>
<rect x="124" y="116" width="12" height="4" fill="#46606E"/>
<rect x="136" y="116" width="8" height="4" fill="#2B2F33"/>
<rect x="56" y="120" width="80" height="4" fill="#2B2F33"/>
</svg>
