<svg xmlns="http://www.w3.org/2000/svg" viewBox="0 0 192 192" shape-rendering="crispEdges">
<rect width="192" height="192" fill="#F2EEE3"/>
<rect x="64" y="32" width="64" height="4" fill="#2B2F33"/>
<rect x="56" y="36" width="8" height="4" fill="#2B2F33"/>
<rect x="64" y="36" width="12" height="4" fill="#7A93A0"/>
<rect x="76" y="36" width="52" height="4" fill="#5B7484"/>
<rect x="128" y="36" width="8" height="4" fill="#2B2F33"/>
<rect x="40" y="40" width="4" height="4" fill="#46606E"/>
<rect x="48" y="40" width="8" height="4" fill="#2B2F33"/>
<rect x="56" y="40" width="12" height="4" fill="#7A93A0"/>
<rect x="68" y="40" width="68" height="4" fill="#5B7484"/>
<rect x="136" y="40" width="8" height="4" fill="#2B2F33"/>
<rect x="148" y="40" width="4" height="4" fill="#46606E"/>
<rect x="36" y="44" width="12" height="4" fill="#2B2F33"/>
<rect x="48" y="44" width="12" height="4" fill="#7A93A0"/>
<rect x="60" y="44" width="84" height="4" fill="#5B7484"/>
<rect x="144" y="44" width="4" height="4" fill="#2B2F33"/>
<rect x="28" y="48" width="8" height="4" fill="#2B2F33"/>
<rect x="36" y="48" width="32" height="4" fill="#9BAA6B"/>
<rect x="36" y="68" width="32" height="4" fill="#9BAA6B"/>
<rect x="68" y="48" width="80" height="4" fill="#5B7484"/>
<rect x="148" y="48" width="16" height="4" fill="#2B2F33"/>
<rect x="20" y="52" width="8" height="4" fill="#2B2F33"/>
<rect x="28" y="52" width="36" height="4" fill="#9BAA6B"/>
<rect x="64" y="52" width="64" height="4" fill="#5B7484"/>
<rect x="64" y="72" width="64" height="4" fill="#5B7484"/>
<rect x="128" y="52" width="36" height="4" fill="#9BAA6B"/>
<rect x="128" y="72" width="36" height="4" fill="#9BAA6B"/>
<rect x="164" y="52" width="8" height="4" fill="#2B2F33"/>
<rect x="16" y="56" width="4" height="4" fill="#2B2F33"/>
<rect x="20" y="56" width="36" height="4" fill="#9BAA6B"/>
<rect x="56" y="56" width="12" height="4" fill="#2B2F33"/>
<rect x="68" y="56" width="56" height="4" fill="#5B7484"/>
<rect x="68" y="68" width="56" height="4" fill="#5B7484"/>
<rect x="124" y="56" width="12" height="4" fill="#2B2F33"/>
<rect x="136" y="56" width="36" height="4" fill="#9BAA6B"/>
<rect x="172" y="56" width="4" height="4" fill="#2B2F33"/>
<rect x="12" y="60" width="4" height="4" fill="#2B2F33"/>
<rect x="16" y="60" width="32" height="4" fill="#9BAA6B"/>
<rect x="48" y="60" width="8" height="4" fill="#7A93A0"/>
<rect x="56" y="60" width="88" height="4" fill="#5B7484"/>
<rect x="144" y="60" width="32" height="4" fill="#9BAA6B"/>
<rect x="176" y="60" width="4" height="4" fill="#2B2F33"/>
<rect x="8" y="64" width="4" height="4" fill="#2B2F33"/>
<rect x="12" y="64" width="28" height="4" fill="#9BAA6B"/>
<rect x="40" y="64" width="4" height="4" fill="#5B7484"/>
<rect x="44" y="64" width="12" height="4" fill="#7A93A0"/>
<rect x="44" y="80" width="12" height="4" fill="#7A93A0"/>
<rect x="44" y="88" width="12" height="4" fill="#7A93A0"/>
<rect x="56" y="64" width="96" height="4" fill="#5B7484"/>
<rect x="152" y="64" width="28" height="4" fill="#9BAA6B"/>
<rect x="180" y="64" width="4" height="4" fill="#2B2F33"/>
<rect x="12" y="68" width="24" height="4" fill="#2B2F33"/>
<rect x="124" y="68" width="32" height="4" fill="#9BAA6B"/>
<rect x="156" y="68" width="24" height="4" fill="#2B2F33"/>
<rect x="28" y="72" width="4" height="4" fill="#2B2F33"/>
<rect x="32" y="72" width="32" height="4" fill="#9BAA6B"/>
<rect x="164" y="72" width="4" height="4" fill="#2B2F33"/>
<rect x="24" y="76" width="4" height="4" fill="#2B2F33"/>
<rect x="28" y="76" width="24" height="4" fill="#9BAA6B"/>
<rect x="52" y="76" width="4" height="4" fill="#2B2F33"/>
<rect x="56" y="76" width="8" height="4" fill="#5B7484"/>
<rect x="64" y="76" width="56" height="4" fill="#EDE8DC"/>
<rect x="64" y="88" width="56" height="8" fill="#EDE8DC"/>
<rect x="120" y="76" width="16" height="4" fill="#5B7484"/>
<rect x="136" y="76" width="4" height="4" fill="#2B2F33"/>
<rect x="140" y="76" width="28" height="4" fill="#9BAA6B"/>
<rect x="168" y="76" width="4" height="4" fill="#2B2F33"/>
<rect x="168" y="104" width="4" height="12" fill="#2B2F33"/>
<rect x="28" y="80" width="16" height="4" fill="#2B2F33"/>
<rect x="56" y="80" width="4" height="4" fill="#5B7484"/>
<rect x="60" y="80" width="24" height="8" fill="#EDE8DC"/>
<rect x="84" y="80" width="16" height="8" fill="#2B2F33"/>
<rect x="100" y="80" width="24" height="4" fill="#EDE8DC"/>
<rect x="124" y="80" width="24" height="4" fill="#5B7484"/>
<rect x="148" y="80" width="20" height="4" fill="#2B2F33"/>
<rect x="148" y="100" width="20" height="4" fill="#2B2F33"/>
<rect x="40" y="84" width="20" height="4" fill="#2B2F33"/>
<rect x="100" y="84" width="28" height="4" fill="#EDE8DC"/>
<rect x="128" y="84" width="4" height="4" fill="#5B7484"/>
<rect x="132" y="84" width="20" height="4" fill="#2B2F33"/>
<rect x="40" y="88" width="4" height="4" fill="#2B2F33"/>
<rect x="40" y="96" width="4" height="4" fill="#2B2F33"/>
<rect x="56" y="88" width="4" height="8" fill="#EDE8DC"/>
<rect x="60" y="88" width="4" height="8" fill="#46606E"/>
<rect x="120" y="88" width="4" height="8" fill="#46606E"/>
<rect x="124" y="88" width="4" height="8" fill="#EDE8DC"/>
<rect x="128" y="88" width="12" height="4" fill="#5B7484"/>
<rect x="128" y="96" width="12" height="8" fill="#5B7484"/>
<rect x="140" y="88" width="8" height="4" fill="#46606E"/>
<rect x="140" y="96" width="8" height="8" fill="#46606E"/>
<rect x="148" y="88" width="4" height="4" fill="#2B2F33"/>
<rect x="148" y="96" width="4" height="4" fill="#2B2F33"/>
<rect x="40" y="92" width="16" height="4" fill="#2B2F33"/>
<rect x="128" y="92" width="8" height="4" fill="#5B7484"/>
<rect x="136" y="92" width="16" height="4" fill="#2B2F33"/>
<rect x="44" y="96" width="12" height="8" fill="#5B7484"/>
<rect x="56" y="96" width="72" height="8" fill="#EDE8DC"/>
<rect x="24" y="100" width="20" height="4" fill="#2B2F33"/>
<rect x="20" y="104" width="4" height="12" fill="#2B2F33"/>
<rect x="24" y="104" width="32" height="12" fill="#9BAA6B"/>
<rect x="56" y="104" width="4" height="12" fill="#2B2F33"/>
<rect x="60" y="104" width="72" height="12" fill="#9BAA6B"/>
<rect x="132" y="104" width="4" height="12" fill="#2B2F33"/>
<rect x="136" y="104" width="32" height="12" fill="#9BAA6B"/>
<rect x="24" y="116" width="32" height="4" fill="#2B2F33"/>
<rect x="56" y="116" width="68" height="4" fill="#5B7484"/>
<rect x="124" y="116" width="12" height="4" fill="#46606E"/>
<rect x="136" y="116" width="32" height="4" fill="#2B2F33"/>
<rect x="56" y="120" width="80" height="4" fill="#2B2F33"/>
</svg>
